<?xml version="1.0" encoding="UTF-8"?>
<svg width="228px" height="42px" viewBox="0 0 228 42" version="1.1" xmlns="http://www.w3.org/2000/svg" xmlns:xlink="http://www.w3.org/1999/xlink">
    <title>3CE92B0B-44D6-4FA6-9415-C8EF9E16D229</title>
    <g id="Symbols" stroke="none" stroke-width="1" fill="none" fill-rule="evenodd">
        <g id="Foundation/Logo/Subdomain/Documentation">
            <polygon id="Path" fill="#09102B" points="46.9999619 0 46.9999619 42 220.333982 42 228.118685 34.089931 228.118685 0"></polygon>
            <path d="M77.3719619,27 C79.2419619,27 80.4999619,26.4503333 81.1459619,25.351 C81.4746286,24.7956667 81.7041286,24.1751667 81.8344619,23.4895 C81.9647952,22.8038333 82.0299619,21.968 82.0299619,20.982 C82.0299619,19.044 81.7012952,17.6216667 81.0439619,16.715 C80.3866286,15.8083333 79.1626286,15.355 77.3719619,15.355 L77.3719619,15.355 L73.3429619,15.355 L73.3429619,27 L77.3719619,27 Z M77.3719619,25.334 L75.2299619,25.334 L75.2299619,17.004 L77.3719619,17.004 C78.4712952,17.004 79.1966286,17.3156667 79.5479619,17.939 C79.8992952,18.5623333 80.0749619,19.5766667 80.0749619,20.982 C80.0749619,21.6846667 80.0437952,22.274 79.9814619,22.75 C79.9191286,23.226 79.7972952,23.6736667 79.6159619,24.093 C79.2419619,24.9203333 78.4939619,25.334 77.3719619,25.334 L77.3719619,25.334 Z M88.9729619,27.187 C90.7296286,27.187 91.9536286,26.711 92.6449619,25.759 C93.3476286,24.807 93.6989619,23.2996667 93.6989619,21.237 C93.6989619,19.1743333 93.3476286,17.6471667 92.6449619,16.6555 C91.9422952,15.6638333 90.7182952,15.168 88.9729619,15.168 C87.2276286,15.168 86.0007952,15.6666667 85.2924619,16.664 C84.5841286,17.6613333 84.2299619,19.1856667 84.2299619,21.237 C84.2299619,23.2883333 84.5812952,24.7928333 85.2839619,25.7505 C85.9866286,26.7081667 87.2162952,27.187 88.9729619,27.187 Z M88.9729619,25.538 C87.8849619,25.538 87.1482952,25.2036667 86.7629619,24.535 C86.3776286,23.8663333 86.1849619,22.7641667 86.1849619,21.2285 C86.1849619,19.6928333 86.3832952,18.5736667 86.7799619,17.871 C87.1766286,17.1683333 87.9076286,16.817 88.9729619,16.817 C90.0382952,16.817 90.7664619,17.1683333 91.1574619,17.871 C91.5484619,18.5736667 91.7439619,19.6985 91.7439619,21.2455 C91.7439619,22.7925 91.5541286,23.8946667 91.1744619,24.552 C90.7947952,25.2093333 90.0609619,25.538 88.9729619,25.538 Z M100.301962,27.187 C101.344629,27.187 102.449629,27.0623333 103.616962,26.813 L103.616962,26.813 L103.565962,25.249 C102.523295,25.419 101.491962,25.504 100.471962,25.504 C99.4519619,25.504 98.7662952,25.2008333 98.4149619,24.5945 C98.0636286,23.9881667 97.8879619,22.8491667 97.8879619,21.1775 C97.8879619,19.5058333 98.0692952,18.3668333 98.4319619,17.7605 C98.7946286,17.1541667 99.4859619,16.851 100.505962,16.851 C101.525962,16.851 102.545962,16.9416667 103.565962,17.123 L103.565962,17.123 L103.633962,15.593 C102.421295,15.3096667 101.310629,15.168 100.301962,15.168 C98.6132952,15.168 97.4629619,15.6241667 96.8509619,16.5365 C96.2389619,17.4488333 95.9329619,18.9816667 95.9329619,21.135 C95.9329619,23.2883333 96.2361286,24.8353333 96.8424619,25.776 C97.4487952,26.7166667 98.6019619,27.187 100.301962,27.187 Z M110.313462,27.187 C111.735795,27.187 112.806795,26.8725 113.526462,26.2435 C114.246129,25.6145 114.605962,24.6143333 114.605962,23.243 L114.605962,23.243 L114.605962,15.355 L112.701962,15.355 L112.701962,23.277 C112.701962,24.7843333 111.908629,25.538 110.321962,25.538 C108.735295,25.538 107.941962,24.7843333 107.941962,23.277 L107.941962,23.277 L107.941962,15.355 L106.037962,15.355 L106.037962,23.243 C106.037962,24.6143333 106.394962,25.6145 107.108962,26.2435 C107.822962,26.8725 108.891129,27.187 110.313462,27.187 Z M119.576962,27 L119.576962,17.446 L119.831962,17.446 L122.585962,26.524 L124.557962,26.524 L127.311962,17.446 L127.566962,17.446 L127.566962,27 L129.470962,27 L129.470962,15.355 L126.172962,15.355 L123.571962,24.45 L120.970962,15.355 L117.689962,15.355 L117.689962,27 L119.576962,27 Z M139.983962,27 L139.983962,25.334 L134.526962,25.334 L134.526962,21.934 L138.963962,21.934 L138.963962,20.302 L134.526962,20.302 L134.526962,17.004 L139.983962,17.004 L139.983962,15.355 L132.639962,15.355 L132.639962,27 L139.983962,27 Z M144.427962,27 L144.427962,17.004 L144.665962,17.004 L148.286962,27 L151.516962,27 L151.516962,15.355 L149.629962,15.355 L149.629962,25.334 L149.374962,25.334 L145.838962,15.355 L142.540962,15.355 L142.540962,27 L144.427962,27 Z M158.799962,27 L158.799962,17.038 L162.080962,17.038 L162.080962,15.355 L153.580962,15.355 L153.580962,17.038 L156.895962,17.038 L156.895962,27 L158.799962,27 Z M164.331962,27 L164.960962,24.501 L169.431962,24.501 L170.060962,27 L171.964962,27 L169.074962,15.355 L165.317962,15.355 L162.444962,27 L164.331962,27 Z M169.057962,22.835 L165.334962,22.835 L166.779962,16.936 L167.629962,16.936 L169.057962,22.835 Z M177.530962,27 L177.530962,17.038 L180.811962,17.038 L180.811962,15.355 L172.311962,15.355 L172.311962,17.038 L175.626962,17.038 L175.626962,27 L177.530962,27 Z M184.762962,27 L184.762962,15.355 L182.875962,15.355 L182.875962,27 L184.762962,27 Z M192.181962,27.187 C193.938629,27.187 195.162629,26.711 195.853962,25.759 C196.556629,24.807 196.907962,23.2996667 196.907962,21.237 C196.907962,19.1743333 196.556629,17.6471667 195.853962,16.6555 C195.151295,15.6638333 193.927295,15.168 192.181962,15.168 C190.436629,15.168 189.209795,15.6666667 188.501462,16.664 C187.793129,17.6613333 187.438962,19.1856667 187.438962,21.237 C187.438962,23.2883333 187.790295,24.7928333 188.492962,25.7505 C189.195629,26.7081667 190.425295,27.187 192.181962,27.187 Z M192.181962,25.538 C191.093962,25.538 190.357295,25.2036667 189.971962,24.535 C189.586629,23.8663333 189.393962,22.7641667 189.393962,21.2285 C189.393962,19.6928333 189.592295,18.5736667 189.988962,17.871 C190.385629,17.1683333 191.116629,16.817 192.181962,16.817 C193.247295,16.817 193.975462,17.1683333 194.366462,17.871 C194.757462,18.5736667 194.952962,19.6985 194.952962,21.2455 C194.952962,22.7925 194.763129,23.8946667 194.383462,24.552 C194.003795,25.2093333 193.269962,25.538 192.181962,25.538 Z M201.487962,27 L201.487962,17.004 L201.725962,17.004 L205.346962,27 L208.576962,27 L208.576962,15.355 L206.689962,15.355 L206.689962,25.334 L206.434962,25.334 L202.898962,15.355 L199.600962,15.355 L199.600962,27 L201.487962,27 Z" id="DOCUMENTATION" fill="#FFFFFF" fill-rule="nonzero"></path>
            <path d="M20.9078566,10.7234043 C18.7031783,10.7234043 17.1827104,11.4716796 16.3464531,12.9879217 C15.5292017,14.5041638 15.111073,16.9065214 15.111073,20.2343774 C15.111073,23.542542 15.5101958,25.9252082 16.3084414,27.342993 C17.1066871,28.7607778 18.6461607,29.4893617 20.9078566,29.4893617 C23.1695525,29.4893617 24.6900204,28.7804693 25.488266,27.3823759 C26.2675058,25.9842826 26.6666286,23.6016164 26.6666286,20.2737604 C26.6666286,16.9262129 26.2675058,14.5041638 25.4502543,12.9879217 C24.6330028,11.4716796 23.112535,10.7234043 20.9078566,10.7234043" id="Fill-1" fill="#41CD52"></path>
            <path d="M40.9701109,32.4379104 C38.9617722,32.4379104 37.5846256,31.9714575 36.8384799,31.0385518 C36.0927168,30.105646 35.710176,28.3368178 35.710176,25.7326503 L35.710176,17.3364985 L32.9941369,17.3364985 L32.9941369,13.9935863 L35.710176,13.9935863 L35.710176,8.74599142 L39.5547103,8.74599142 L39.5547103,13.9935863 L44.4512315,13.9935863 L44.4512315,17.3557397 L39.5547103,17.3557397 L39.5547103,25.3050685 C39.5547103,26.7819749 39.6694725,27.7537518 39.8798699,28.220399 C40.090076,28.7062874 40.6449513,28.9395138 41.5056679,28.9395138 L44.4129774,28.8227063 L44.5849294,31.9714575 C43.0167038,32.2822318 41.8115092,32.4379104 40.9701109,32.4379104 L40.9701109,32.4379104 Z M29.8955571,36.2082101 L26.2422933,37.9381672 L23.0863323,32.6709425 C22.6272835,32.8069912 21.9195832,32.8849277 20.9249773,32.8849277 C17.2334594,32.8849277 14.6513095,31.8742798 13.1976548,29.8527897 C11.744,27.8316883 11.0171727,24.6248247 11.0171727,20.2710702 C11.0171727,15.8980745 11.7631271,12.6525343 13.2359089,10.5340608 C14.7086906,8.41539294 17.2717134,7.34643844 20.9249773,7.34643844 C24.5782411,7.34643844 27.141264,8.39615176 28.5949187,10.5146252 C30.0677005,12.6136632 30.7945278,15.8593978 30.7945278,20.251829 C30.7945278,23.1475296 30.4884952,25.479794 29.8955571,27.2486222 C29.2833007,29.0366915 28.3080131,30.3971791 26.9308666,31.3300848 L29.8955571,36.2082101 Z M50.7248992,0 L48.7739416,0 L7.78470362,0 L-6.75015599e-14,7.91026335 L-6.75015599e-14,34.3618342 L-6.75015599e-14,36.5193731 L-6.75015599e-14,42 L5.39382413,42 L7.34478179,42 L48.3340197,42 L56.1187234,34.089931 L56.1187234,7.63797149 L56.1187234,5.48082129 L56.1187234,0 L50.7248992,0 Z" id="Fill-3" fill="#41CD52"></path>
        </g>
    </g>
</svg>